HIERARCHY
ROOT hip
{
  OFFSET 0 90.174 2.4664
  CHANNELS 6 Xposition Yposition Zposition Zrotation Xrotation Yrotation
  JOINT abdomen
  {
    OFFSET 0 -1.186 -1.5018
    CHANNELS 6 Xposition Yposition Zposition Zrotation Xrotation Yrotation
    JOINT abdomen2
    {
      OFFSET 0 9.964 0.2134
      CHANNELS 6 Xposition Yposition Zposition Zrotation Xrotation Yrotation
      JOINT chest
      {
        OFFSET 0 13.134 -3.2573
        CHANNELS 6 Xposition Yposition Zposition Zrotation Xrotation Yrotation
        JOINT neck
        {
          OFFSET 0 20.686 -1.6905
          CHANNELS 6 Xposition Yposition Zposition Zrotation Xrotation Yrotation
          JOINT head
          {
            OFFSET 0 7.238 -0.1237
            CHANNELS 6 Xposition Yposition Zposition Zrotation Xrotation Yrotation
            End Site
            {
              OFFSET 0 0 0
            }
          }
        }
        JOINT lCollar
        {
          OFFSET 1.7069 20.075 5.0056
          CHANNELS 6 Xposition Yposition Zposition Zrotation Xrotation Yrotation
          JOINT lShldr
          {
            OFFSET 13.6458 -0.047 -4.849
            CHANNELS 6 Xposition Yposition Zposition Zrotation Xrotation Yrotation
            JOINT lForeArm
            {
              OFFSET 28.3255 -0.9759 2.2888
              CHANNELS 6 Xposition Yposition Zposition Zrotation Xrotation Yrotation
              JOINT lHand
              {
                OFFSET 22.1583 -0.53 10.8316
                CHANNELS 6 Xposition Yposition Zposition Zrotation Xrotation Yrotation
                JOINT lThumb1
                {
                  OFFSET 0.786 0.112 2.5817
                  CHANNELS 6 Xposition Yposition Zposition Zrotation Xrotation Yrotation
                  JOINT lThumb2
                  {
                    OFFSET 0.3601 -0.878 4.2331
                    CHANNELS 6 Xposition Yposition Zposition Zrotation Xrotation Yrotation
                    JOINT lThumb2_End
                    {
                      OFFSET 1.8127 -1.216 2.2227
                      CHANNELS 6 Xposition Yposition Zposition Zrotation Xrotation Yrotation
                      End Site
                      {
                        OFFSET 0.0181 -0.0122 0.0222
                      }
                    }
                  }
                }
                JOINT lCarpal1
                {
                  OFFSET 0.9571 1.114 1.7695
                  CHANNELS 6 Xposition Yposition Zposition Zrotation Xrotation Yrotation
                  JOINT lIndex1
                  {
                    OFFSET 4.1246 0.487 4.1451
                    CHANNELS 6 Xposition Yposition Zposition Zrotation Xrotation Yrotation
                    JOINT lIndex2
                    {
                      OFFSET 3.4052 -1.454 2.7682
                      CHANNELS 6 Xposition Yposition Zposition Zrotation Xrotation Yrotation
                      JOINT lIndex2_End
                      {
                        OFFSET 1.4531 -1.795 1.2713
                        CHANNELS 6 Xposition Yposition Zposition Zrotation Xrotation Yrotation
                        End Site
                        {
                          OFFSET 0.0145 -0.0179 0.0127
                        }
                      }
                    }
                  }
                  JOINT lMid1
                  {
                    OFFSET 5.6954 0.21 2.1184
                    CHANNELS 6 Xposition Yposition Zposition Zrotation Xrotation Yrotation
                    JOINT lMid2
                    {
                      OFFSET 3.9766 -1.54 2.3863
                      CHANNELS 6 Xposition Yposition Zposition Zrotation Xrotation Yrotation
                      JOINT lMid2_End
                      {
                        OFFSET 1.4042 -1.926 1.125
                        CHANNELS 6 Xposition Yposition Zposition Zrotation Xrotation Yrotation
                        End Site
                        {
                          OFFSET 0.014 -0.0193 0.0113
                        }
                      }
                    }
                  }
                }
                JOINT lCarpal2
                {
                  OFFSET 2.0956 0.66 -0.3894
                  CHANNELS 6 Xposition Yposition Zposition Zrotation Xrotation Yrotation
                  JOINT lRing1
                  {
                    OFFSET 5.0395 -0.09 2.4971
                    CHANNELS 6 Xposition Yposition Zposition Zrotation Xrotation Yrotation
                    JOINT lRing2
                    {
                      OFFSET 3.7921 -1.552 1.4806
                      CHANNELS 6 Xposition Yposition Zposition Zrotation Xrotation Yrotation
                      JOINT lRing2_End
                      {
                        OFFSET 1.4655 -1.808 0.9609
                        CHANNELS 6 Xposition Yposition Zposition Zrotation Xrotation Yrotation
                        End Site
                        {
                          OFFSET 0.0147 -0.0181 0.0096
                        }
                      }
                    }
                  }
                  JOINT lPinky1
                  {
                    OFFSET 4.9141 -1.269 0.3591
                    CHANNELS 6 Xposition Yposition Zposition Zrotation Xrotation Yrotation
                    JOINT lPinky2
                    {
                      OFFSET 3.1477 -1.685 0.8462
                      CHANNELS 6 Xposition Yposition Zposition Zrotation Xrotation Yrotation
                      JOINT lPinky2_End
                      {
                        OFFSET 0.8055 -1.585 0.7955
                        CHANNELS 6 Xposition Yposition Zposition Zrotation Xrotation Yrotation
                        End Site
                        {
                          OFFSET 0.0081 -0.0158 0.008
                        }
                      }
                    }
                  }
                }
              }
            }
          }
        }
        JOINT rCollar
        {
          OFFSET -1.7069 20.075 5.0056
          CHANNELS 6 Xposition Yposition Zposition Zrotation Xrotation Yrotation
          JOINT rShldr
          {
            OFFSET -13.6458 -0.047 -4.849
            CHANNELS 6 Xposition Yposition Zposition Zrotation Xrotation Yrotation
            JOINT rForeArm
            {
              OFFSET -28.3255 -0.9759 2.2888
              CHANNELS 6 Xposition Yposition Zposition Zrotation Xrotation Yrotation
              JOINT rHand
              {
                OFFSET -22.1583 -0.53 10.8316
                CHANNELS 6 Xposition Yposition Zposition Zrotation Xrotation Yrotation
                JOINT rThumb1
                {
                  OFFSET -0.786 0.112 2.5817
                  CHANNELS 6 Xposition Yposition Zposition Zrotation Xrotation Yrotation
                  JOINT rThumb2
                  {
                    OFFSET -0.3601 -0.878 4.2331
                    CHANNELS 6 Xposition Yposition Zposition Zrotation Xrotation Yrotation
                    JOINT rThumb2_End
                    {
                      OFFSET -1.8127 -1.216 2.2227
                      CHANNELS 6 Xposition Yposition Zposition Zrotation Xrotation Yrotation
                      End Site
                      {
                        OFFSET -0.0181 -0.0122 0.0222
                      }
                    }
                  }
                }
                JOINT rCarpal1
                {
                  OFFSET -0.9571 1.114 1.7695
                  CHANNELS 6 Xposition Yposition Zposition Zrotation Xrotation Yrotation
                  JOINT rIndex1
                  {
                    OFFSET -4.1246 0.487 4.1451
                    CHANNELS 6 Xposition Yposition Zposition Zrotation Xrotation Yrotation
                    JOINT rIndex2
                    {
                      OFFSET -3.4052 -1.454 2.7682
                      CHANNELS 6 Xposition Yposition Zposition Zrotation Xrotation Yrotation
                      JOINT rIndex2_End
                      {
                        OFFSET -1.4531 -1.795 1.2713
                        CHANNELS 6 Xposition Yposition Zposition Zrotation Xrotation Yrotation
                        End Site
                        {
                          OFFSET -0.0145 -0.018 0.0127
                        }
                      }
                    }
                  }
                  JOINT rMid1
                  {
                    OFFSET -5.6954 0.21 2.1184
                    CHANNELS 6 Xposition Yposition Zposition Zrotation Xrotation Yrotation
                    JOINT rMid2
                    {
                      OFFSET -3.9766 -1.54 2.3863
                      CHANNELS 6 Xposition Yposition Zposition Zrotation Xrotation Yrotation
                      JOINT rMid2_End
                      {
                        OFFSET -1.4042 -1.926 1.125
                        CHANNELS 6 Xposition Yposition Zposition Zrotation Xrotation Yrotation
                        End Site
                        {
                          OFFSET -0.014 -0.0193 0.0113
                        }
                      }
                    }
                  }
                }
                JOINT rCarpal2
                {
                  OFFSET -2.0956 0.66 -0.3894
                  CHANNELS 6 Xposition Yposition Zposition Zrotation Xrotation Yrotation
                  JOINT rRing1
                  {
                    OFFSET -5.0395 -0.09 2.4971
                    CHANNELS 6 Xposition Yposition Zposition Zrotation Xrotation Yrotation
                    JOINT rRing2
                    {
                      OFFSET -3.7921 -1.552 1.4806
                      CHANNELS 6 Xposition Yposition Zposition Zrotation Xrotation Yrotation
                      JOINT rRing2_End
                      {
                        OFFSET -1.4655 -1.808 0.9609
                        CHANNELS 6 Xposition Yposition Zposition Zrotation Xrotation Yrotation
                        End Site
                        {
                          OFFSET -0.0147 -0.0181 0.0096
                        }
                      }
                    }
                  }
                  JOINT rPinky1
                  {
                    OFFSET -4.9141 -1.269 0.3592
                    CHANNELS 6 Xposition Yposition Zposition Zrotation Xrotation Yrotation
                    JOINT rPinky2
                    {
                      OFFSET -3.1477 -1.685 0.8462
                      CHANNELS 6 Xposition Yposition Zposition Zrotation Xrotation Yrotation
                      JOINT rPinky2_End
                      {
                        OFFSET -0.8055 -1.585 0.7955
                        CHANNELS 6 Xposition Yposition Zposition Zrotation Xrotation Yrotation
                        End Site
                        {
                          OFFSET -0.0081 -0.0158 0.008
                        }
                      }
                    }
                  }
                }
              }
            }
          }
        }
      }
    }
  }
  JOINT lThigh
  {
    OFFSET 8.367 -8.2066 0.5982
    CHANNELS 6 Xposition Yposition Zposition Zrotation Xrotation Yrotation
    JOINT lShin
    {
      OFFSET 2.1923 -43.463 -0.4932
      CHANNELS 6 Xposition Yposition Zposition Zrotation Xrotation Yrotation
      JOINT lFoot
      {
        OFFSET 0.7333 -45.8593 -2.6451
        CHANNELS 6 Xposition Yposition Zposition Zrotation Xrotation Yrotation
        End Site
        {
          OFFSET 2.6618 -4.2699 12.3931
        }
      }
    }
  }
  JOINT rThigh
  {
    OFFSET -8.367 -8.2066 0.5982
    CHANNELS 6 Xposition Yposition Zposition Zrotation Xrotation Yrotation
    JOINT rShin
    {
      OFFSET -2.1923 -43.463 -0.4931
      CHANNELS 6 Xposition Yposition Zposition Zrotation Xrotation Yrotation
      JOINT rFoot
      {
        OFFSET -0.7333 -45.8593 -2.6451
        CHANNELS 6 Xposition Yposition Zposition Zrotation Xrotation Yrotation
        End Site
        {
          OFFSET -2.6618 -4.2699 12.3931
        }
      }
    }
  }
}
MOTION
Frames:	4
Frame Time:	0.0333333
0 90.174 2.4664 0 0 -0 0 -1.186 -1.5018 0 0 -0 0 9.964 0.2134 0 0 -0 0 13.134 -3.2573 0 0 -0 0 20.686 -1.6905 0 0 -0 0 7.238 -0.1237 0 0 -0 1.7069 20.075 5.0056 0 0 -0 13.6458 -0.047 -4.849 1.66051 0.0835086 5.75766 28.3255 -0.9759 2.2888 -0.0175111 0.895433 15.7816 22.1583 -0.53 10.8316 7.95139e-016 -1.98785e-016 -0 0.786 0.112 2.5817 5.46658e-016 -3.97569e-016 -0 0.3601 -0.878 4.2331 5.96354e-016 0 -0 1.8127 -1.216 2.2227 3.97569e-016 1.98785e-016 9.54166e-015 0.9571 1.114 1.7695 1.49089e-016 -3.97569e-016 -0 4.1246 0.487 4.1451 6.4605e-016 0 3.18055e-015 3.4052 -1.454 2.7682 5.96354e-016 0 3.18055e-015 1.4531 -1.795 1.2713 8.94531e-016 -1.98785e-016 6.36111e-015 5.6954 0.21 2.1184 6.4605e-016 0 3.18055e-015 3.9766 -1.54 2.3863 5.96354e-016 0 3.18055e-015 1.4042 -1.926 1.125 8.94531e-016 -1.98785e-016 6.36111e-015 2.0956 0.66 -0.3894 1.49089e-016 -3.97569e-016 -0 5.0395 -0.09 2.4971 6.4605e-016 0 3.18055e-015 3.7921 -1.552 1.4806 5.96354e-016 0 3.18055e-015 1.4655 -1.808 0.9609 8.94531e-016 -1.98785e-016 6.36111e-015 4.9141 -1.269 0.3591 6.4605e-016 0 3.18055e-015 3.1477 -1.685 0.8462 5.96354e-016 0 3.18055e-015 0.8055 -1.585 0.7955 8.94531e-016 -1.98785e-016 6.36111e-015 -1.7069 20.075 5.0056 0 0 -0 -13.6458 -0.047 -4.849 -1.4496 0.0636048 -5.0245 -28.3255 -0.9759 2.2888 -1.74811 1.20616 -16.8394 -22.1583 -0.53 10.8316 -1.19271e-015 1.98785e-016 -3.18055e-015 -0.786 0.112 2.5817 -3.97569e-016 1.98785e-016 -3.18055e-015 -0.3601 -0.878 4.2331 -2.98177e-016 1.98785e-016 -3.18055e-015 -1.8127 -1.216 2.2227 -2.98177e-016 3.97569e-016 -0 -0.9571 1.114 1.7695 4.96962e-016 0 -6.36111e-015 -4.1246 0.487 4.1451 -9.93923e-017 3.97569e-016 -0 -3.4052 -1.454 2.7682 -8.94531e-016 5.96354e-016 -0 -1.4531 -1.795 1.2713 -3.97569e-016 3.97569e-016 -0 -5.6954 0.21 2.1184 -9.93923e-017 3.97569e-016 -0 -3.9766 -1.54 2.3863 -8.94531e-016 5.96354e-016 -0 -1.4042 -1.926 1.125 -3.97569e-016 3.97569e-016 -0 -2.0956 0.66 -0.3894 4.96962e-016 0 -6.36111e-015 -5.0395 -0.09 2.4971 -9.93923e-017 3.97569e-016 -0 -3.7921 -1.552 1.4806 -8.94531e-016 5.96354e-016 -0 -1.4655 -1.808 0.9609 -3.97569e-016 3.97569e-016 -0 -4.9141 -1.269 0.3592 -9.93923e-017 3.97569e-016 -0 -3.1477 -1.685 0.8462 -8.94531e-016 5.96354e-016 -0 -0.8055 -1.585 0.7955 -3.97569e-016 3.97569e-016 -0 8.367 -8.2066 0.5982 -4.66115 -1.03232 0.120763 2.1923 -43.463 -0.4932 0.00990601 1.55097 0.177175 0.7333 -45.8593 -2.6451 4.65196 -0.54114 -0.255042 -8.367 -8.2066 0.5982 4.66115 -1.03222 -0.120763 -2.1923 -43.463 -0.4931 -0.00990459 1.5509 -0.177176 -0.7333 -45.8593 -2.6451 -4.65196 -0.541171 0.255041 
23.9617 24.9417 -5.72027 -66.6886 76.3044 0.0108652 -1.77636e-015 -1.186 -1.5018 1.77313 -0.487941 -0.40459 1.77636e-015 9.964 0.2134 3.54298 -0.988169 -0.793955 -3.55271e-015 13.134 -3.2573 3.54298 -0.98819 -0.793918 1.77636e-015 20.686 -1.6905 7.5215e-006 44.4705 -4.1453e-006 5.32907e-015 7.238 -0.1237 -0.0298948 4.92916 0.00180495 1.7069 20.075 5.0056 -14.3398 -1.9232 -33.5685 13.6458 -0.047 -4.849 -30.8151 -12.7349 -5.79072 28.3255 -0.9759 2.2888 1.09074 -8.20201 6.10429 22.1583 -0.53 10.8316 -6.54429 2.59277 -24.3359 0.786 0.112 2.5817 -7.80859e-007 -2.96437e-006 1.07644e-006 0.3601 -0.878 4.2331 -4.77083e-015 9.54166e-015 9.54166e-015 1.8127 -1.216 2.2227 -2.54805e-007 -3.50259e-006 -4.0574e-007 0.9571 1.114 1.7695 1.59028e-015 0 3.18055e-015 4.1246 0.487 4.1451 -7.80859e-007 -2.96437e-006 1.07644e-006 3.4052 -1.454 2.7682 -3.18055e-015 6.36111e-015 4.77083e-015 1.4531 -1.795 1.2713 -2.54805e-007 -3.50259e-006 -4.0574e-007 5.6954 0.21 2.1184 -7.80859e-007 -2.96437e-006 1.07644e-006 3.9766 -1.54 2.3863 -3.18055e-015 6.36111e-015 4.77083e-015 1.4042 -1.926 1.125 -2.54805e-007 -3.50259e-006 -4.0574e-007 2.0956 0.66 -0.3894 1.59028e-015 0 3.18055e-015 5.0395 -0.09 2.4971 -7.80859e-007 -2.96437e-006 1.07644e-006 3.7921 -1.552 1.4806 -3.18055e-015 6.36111e-015 4.77083e-015 1.4655 -1.808 0.9609 -2.54805e-007 -3.50259e-006 -4.0574e-007 4.9141 -1.269 0.3591 -7.80859e-007 -2.96437e-006 1.07644e-006 3.1477 -1.685 0.8462 -3.18055e-015 6.36111e-015 4.77083e-015 0.8055 -1.585 0.7955 -2.54805e-007 -3.50259e-006 -4.0574e-007 -1.7069 20.075 5.0056 -0.0491321 0.790616 18.6213 -13.6458 -0.047 -4.849 41.2487 -6.00083 3.37908 -28.3255 -0.9759 2.2888 30.3997 -50.3915 56.5705 -22.1583 -0.53 10.8316 25.9142 23.8793 3.63467 -0.786 0.112 2.5817 2.98177e-016 0 3.97569e-016 -0.3601 -0.878 4.2331 1.8719e-006 5.85873e-007 -1.62582e-006 -1.8127 -1.216 2.2227 -4.72114e-016 3.18055e-015 -0 -0.9571 1.114 1.7695 4.72114e-016 -1.59028e-015 -3.97569e-016 -4.1246 0.487 4.1451 -2.48481e-015 1.59028e-015 5.96354e-015 -3.4052 -1.454 2.7682 1.8719e-006 5.85873e-007 -1.62582e-006 -1.4531 -1.795 1.2713 -4.96962e-017 -1.59028e-015 -9.93923e-016 -5.6954 0.21 2.1184 -2.48481e-015 1.59028e-015 5.96354e-015 -3.9766 -1.54 2.3863 1.8719e-006 5.85873e-007 -1.62582e-006 -1.4042 -1.926 1.125 -4.96962e-017 -1.59028e-015 -9.93923e-016 -2.0956 0.66 -0.3894 4.72114e-016 -1.59028e-015 -3.97569e-016 -5.0395 -0.09 2.4971 -2.48481e-015 1.59028e-015 5.96354e-015 -3.7921 -1.552 1.4806 1.8719e-006 5.85873e-007 -1.62582e-006 -1.4655 -1.808 0.9609 -4.96962e-017 -1.59028e-015 -9.93923e-016 -4.9141 -1.269 0.3592 -2.48481e-015 1.59028e-015 5.96354e-015 -3.1477 -1.685 0.8462 1.8719e-006 5.85873e-007 -1.62582e-006 -0.8055 -1.585 0.7955 -4.96962e-017 -1.59028e-015 -9.93923e-016 8.367 -8.2066 0.5982 0.666593 -29.1572 1.7502 2.1923 -43.463 -0.4932 -1.40475 22.6891 1.52778 0.7333 -45.8593 -2.6451 5.00112 7.8525 0.00272164 -8.367 -8.2066 0.5982 -1.93909 -14.9281 -2.25176 -2.1923 -43.463 -0.4931 24.2394 42.5965 -23.6572 -0.7333 -45.8593 -2.6451 -5.08253 26.5871 1.98476 
29.6413 0.59899 -14.2373 83.3267 69.3586 179.989 8.88178e-016 -1.186 -1.5018 2.59347 -0.573964 -0.194048 0 9.964 0.2134 5.18541 -1.15612 -0.362063 -8.88178e-016 13.134 -3.2573 5.18537 -1.15614 -0.362026 3.55271e-015 20.686 -1.6905 -0.000251272 64.2015 0.00024685 -8.88178e-016 7.238 -0.1237 -0.0433211 6.09159 0.00189915 1.7069 20.075 5.0056 -21.0356 -2.44248 -48.2256 13.6458 -0.047 -4.849 -47.7415 -17.8602 -11.624 28.3255 -0.9759 2.2888 0.618708 -12.0282 0.52909 22.1583 -0.53 10.8316 -9.36784 3.46049 -34.8184 0.786 0.112 2.5817 -3.18055e-015 1.59028e-015 6.36111e-015 0.3601 -0.878 4.2331 -3.6472e-007 -9.82715e-007 -8.6324e-007 1.8127 -1.216 2.2227 3.6472e-007 9.82715e-007 8.6324e-007 0.9571 1.114 1.7695 -6.36111e-015 1.59028e-015 6.36111e-015 4.1246 0.487 4.1451 6.36111e-015 3.18055e-015 -0 3.4052 -1.454 2.7682 -3.6472e-007 -9.82715e-007 -8.6324e-007 1.4531 -1.795 1.2713 3.6472e-007 9.82715e-007 8.6324e-007 5.6954 0.21 2.1184 6.36111e-015 3.18055e-015 -0 3.9766 -1.54 2.3863 -3.6472e-007 -9.82715e-007 -8.6324e-007 1.4042 -1.926 1.125 3.6472e-007 9.82715e-007 8.6324e-007 2.0956 0.66 -0.3894 -6.36111e-015 1.59028e-015 6.36111e-015 5.0395 -0.09 2.4971 6.36111e-015 3.18055e-015 -0 3.7921 -1.552 1.4806 -3.6472e-007 -9.82715e-007 -8.6324e-007 1.4655 -1.808 0.9609 3.6472e-007 9.82715e-007 8.6324e-007 4.9141 -1.269 0.3591 6.36111e-015 3.18055e-015 -0 3.1477 -1.685 0.8462 -3.6472e-007 -9.82715e-007 -8.6324e-007 0.8055 -1.585 0.7955 3.6472e-007 9.82715e-007 8.6324e-007 -1.7069 20.075 5.0056 -0.371134 1.01385 26.8842 -13.6458 -0.047 -4.849 61.1335 -8.56337 7.28545 -28.3255 -0.9759 2.2888 56.5701 -30.8931 85.8177 -22.1583 -0.53 10.8316 37.8753 33.7194 4.35922 -0.786 0.112 2.5817 2.4761e-006 1.10631e-006 1.11653e-006 -0.3601 -0.878 4.2331 1.67081e-006 -2.742e-008 -2.22299e-007 -1.8127 -1.216 2.2227 3.36903e-006 1.61597e-006 -7.16551e-007 -0.9571 1.114 1.7695 -2.78299e-015 1.59028e-015 -1.59028e-015 -4.1246 0.487 4.1451 2.4761e-006 1.10631e-006 1.11653e-006 -3.4052 -1.454 2.7682 1.67081e-006 -2.742e-008 -2.22299e-007 -1.4531 -1.795 1.2713 3.36903e-006 1.61597e-006 -7.16551e-007 -5.6954 0.21 2.1184 2.4761e-006 1.10631e-006 1.11653e-006 -3.9766 -1.54 2.3863 1.67081e-006 -2.742e-008 -2.22299e-007 -1.4042 -1.926 1.125 3.36903e-006 1.61597e-006 -7.16551e-007 -2.0956 0.66 -0.3894 -2.78299e-015 1.59028e-015 -1.59028e-015 -5.0395 -0.09 2.4971 2.4761e-006 1.10631e-006 1.11653e-006 -3.7921 -1.552 1.4806 1.67081e-006 -2.742e-008 -2.22299e-007 -1.4655 -1.808 0.9609 3.36903e-006 1.61597e-006 -7.16551e-007 -4.9141 -1.269 0.3592 2.4761e-006 1.10631e-006 1.11653e-006 -3.1477 -1.685 0.8462 1.67081e-006 -2.742e-008 -2.22299e-007 -0.8055 -1.585 0.7955 3.36903e-006 1.61597e-006 -7.16551e-007 8.367 -8.2066 0.5982 3.77435 -42.0853 3.21163 2.1923 -43.463 -0.4932 -2.52283 34.7817 2.31277 0.7333 -45.8593 -2.6451 5.50513 9.37946 0.194287 -8.367 -8.2066 0.5982 -4.42662 -22.6915 -3.65433 -2.1923 -43.463 -0.4931 51.2791 55.8651 -45.4823 -0.7333 -45.8593 -2.6451 -5.38399 40.828 1.2358 
28.2568 5.53537 -12.0831 89.9996 76.9891 179.985 -8.88178e-016 -1.186 -1.5018 2.41394 -0.346036 -0.29033 -8.88178e-016 9.964 0.2134 4.82623 -0.703992 -0.56575 8.88178e-016 13.134 -3.2573 4.82622 -0.704007 -0.565766 0 20.686 -1.6905 -0.00135247 59.1938 0.00111173 0 7.238 -0.1237 -0.04013 3.48493 0.000275693 1.7069 20.075 5.0056 -18.5428 -2.92596 -43.9302 13.6458 -0.047 -4.849 -45.1198 -16.2773 -10.6819 28.3255 -0.9759 2.2888 0.828663 -11.2774 -0.441039 22.1583 -0.53 10.8316 -8.5227 2.95418 -31.6692 0.786 0.112 2.5817 1.57196e-006 -4.72217e-007 1.3297e-007 0.3601 -0.878 4.2331 4.17708e-007 2.13203e-007 -1.45219e-006 1.8127 -1.216 2.2227 3.18055e-015 3.18055e-015 -0 0.9571 1.114 1.7695 1.59028e-015 0 -6.36111e-015 4.1246 0.487 4.1451 1.57196e-006 -4.72217e-007 1.3297e-007 3.4052 -1.454 2.7682 4.17708e-007 2.13203e-007 -1.45219e-006 1.4531 -1.795 1.2713 -6.36111e-015 1.27222e-014 6.36111e-015 5.6954 0.21 2.1184 1.57196e-006 -4.72217e-007 1.3297e-007 3.9766 -1.54 2.3863 4.17708e-007 2.13203e-007 -1.45219e-006 1.4042 -1.926 1.125 -6.36111e-015 1.27222e-014 6.36111e-015 2.0956 0.66 -0.3894 1.59028e-015 0 -6.36111e-015 5.0395 -0.09 2.4971 1.57196e-006 -4.72217e-007 1.3297e-007 3.7921 -1.552 1.4806 4.17708e-007 2.13203e-007 -1.45219e-006 1.4655 -1.808 0.9609 -6.36111e-015 1.27222e-014 6.36111e-015 4.9141 -1.269 0.3591 1.57196e-006 -4.72217e-007 1.3297e-007 3.1477 -1.685 0.8462 4.17708e-007 2.13203e-007 -1.45219e-006 0.8055 -1.585 0.7955 -6.36111e-015 1.27222e-014 6.36111e-015 -1.7069 20.075 5.0056 -0.603513 0.823979 24.7833 -13.6458 -0.047 -4.849 56.8893 -7.86344 6.52469 -28.3255 -0.9759 2.2888 52.909 -35.6643 83.323 -22.1583 -0.53 10.8316 34.8793 31.265 4.64611 -0.786 0.112 2.5817 4.05351e-007 -7.13078e-007 -1.67948e-006 -0.3601 -0.878 4.2331 -2.59906e-006 7.25481e-007 1.85909e-006 -1.8127 -1.216 2.2227 -1.16717e-006 -4.1279e-007 1.06449e-007 -0.9571 1.114 1.7695 -2.48481e-016 -7.95139e-016 3.97569e-016 -4.1246 0.487 4.1451 4.05351e-007 -7.13078e-007 -1.67948e-006 -3.4052 -1.454 2.7682 -2.59906e-006 7.25481e-007 1.85909e-006 -1.4531 -1.795 1.2713 -1.16717e-006 -4.1279e-007 1.06449e-007 -5.6954 0.21 2.1184 4.05351e-007 -7.13078e-007 -1.67948e-006 -3.9766 -1.54 2.3863 -2.59906e-006 7.25481e-007 1.85909e-006 -1.4042 -1.926 1.125 -1.16717e-006 -4.1279e-007 1.06449e-007 -2.0956 0.66 -0.3894 -2.48481e-016 -7.95139e-016 3.97569e-016 -5.0395 -0.09 2.4971 4.05351e-007 -7.13078e-007 -1.67948e-006 -3.7921 -1.552 1.4806 -2.59906e-006 7.25481e-007 1.85909e-006 -1.4655 -1.808 0.9609 -1.16717e-006 -4.1279e-007 1.06449e-007 -4.9141 -1.269 0.3592 4.05351e-007 -7.13078e-007 -1.67948e-006 -3.1477 -1.685 0.8462 -2.59906e-006 7.25481e-007 1.85909e-006 -0.8055 -1.585 0.7955 -1.16717e-006 -4.1279e-007 1.06449e-007 8.367 -8.2066 0.5982 3.15576 -39.4954 2.8742 2.1923 -43.463 -0.4932 -2.31267 32.5369 2.14803 0.7333 -45.8593 -2.6451 5.32281 8.88256 0.163218 -8.367 -8.2066 0.5982 -3.44769 -21.0557 -2.43466 -2.1923 -43.463 -0.4931 43.4255 53.3572 -39.8979 -0.7333 -45.8593 -2.6451 -4.94638 37.731 1.72127 
